<?xml version="1.0" encoding="UTF-8" standalone="no"?>
<!-- Created with Inkscape (http://www.inkscape.org/) -->
<svg
   xmlns:dc="http://purl.org/dc/elements/1.1/"
   xmlns:cc="http://web.resource.org/cc/"
   xmlns:rdf="http://www.w3.org/1999/02/22-rdf-syntax-ns#"
   xmlns:svg="http://www.w3.org/2000/svg"
   xmlns="http://www.w3.org/2000/svg"
   xmlns:sodipodi="http://sodipodi.sourceforge.net/DTD/sodipodi-0.dtd"
   xmlns:inkscape="http://www.inkscape.org/namespaces/inkscape"
   width="380"
   height="280"
   id="svg2256"
   sodipodi:version="0.32"
   inkscape:version="0.45.1"
   version="1.0"
   sodipodi:docbase="C:\Documents and Settings\Jim\Desktop\Wikipedia\Winding Number"
   sodipodi:docname="Winding Number.svg"
   inkscape:output_extension="org.inkscape.output.svg.inkscape">
  <sodipodi:namedview
     id="base"
     pagecolor="#ffffff"
     bordercolor="#666666"
     borderopacity="1.0"
     gridtolerance="10000"
     guidetolerance="10"
     objecttolerance="10"
     inkscape:pageopacity="0.0"
     inkscape:pageshadow="2"
     inkscape:zoom="1.4142136"
     inkscape:cx="178.69998"
     inkscape:cy="130.03911"
     inkscape:document-units="px"
     inkscape:current-layer="layer1"
     width="380px"
     height="280px"
     inkscape:window-width="1024"
     inkscape:window-height="708"
     inkscape:window-x="-4"
     inkscape:window-y="30" />
  <defs
     id="defs2258" />
  <metadata
     id="metadata2261">
    <rdf:RDF>
      <cc:Work
         rdf:about="">
        <dc:format>image/svg+xml</dc:format>
        <dc:type
           rdf:resource="http://purl.org/dc/dcmitype/StillImage" />
      </cc:Work>
    </rdf:RDF>
  </metadata>
  <g
     inkscape:label="Layer 1"
     id="layer1"
     transform="translate(328.12852,29.034088)"
     inkscape:groupmode="layer">
    <g
       id="g2293"
       transform="matrix(0.3321561,0,0,0.3321561,-99.569806,81.197154)">
      <path
         style="fill:#000000;fill-rule:nonzero;stroke:none;stroke-linecap:round;stroke-linejoin:round"
         d="M -217,78.00504 L -222,79.00504 L -226,81.00504 L -228,85.00504 L -229,90.00504 L -228,95.00504 L -226,99.00504 L -222,101.00504 L -217,102.00504 L -212,101.00504 L -208,99.00504 L -206,95.00504 L -205,90.00504 L -206,85.00504 L -208,81.00504 L -212,79.00504 L -217,78.00504 z "
         id="path15" />
      <path
         style="fill:none;fill-rule:nonzero;stroke:#bc1e47;stroke-width:6px;stroke-linecap:round;stroke-linejoin:round"
         d="M -157,222.00504 L -136,207.00504 L -114,189.00504 L -94,168.00504 L -77,143.00504 L -69,129.00504 L -62,114.00504 L -48,80.00504 L -42,63.00504 L -38,45.00504 L -35,26.00504 L -33,8.0050398 L -33,-10.99496 L -34,-30.99496 L -36,-51.99496 L -39,-72.99496 L -43,-93.99496 L -48,-113.99496 L -55,-132.99496 L -62,-149.99496 L -71,-165.99496 L -81,-179.99496 L -92,-193.99496 L -104,-206.99496 L -117,-218.99496 L -132,-229.99496 L -147,-239.99496 L -163,-248.99496 L -181,-256.99496 L -200,-262.99496 L -221,-268.99496 L -242,-272.99496 L -264,-275.99496 L -286,-277.99496 L -306,-278.99496 L -326,-278.99496 L -345,-277.99496 L -364,-274.99496 L -400,-266.99496 L -417,-260.99496 L -434,-253.99496 L -467,-237.99496 L -499,-217.99496 L -530,-193.99496 L -558,-165.99496 L -571,-150.99496 L -583,-134.99496 L -594,-117.99496 L -603,-99.99496 L -620,-62.99496 L -633,-23.99496 L -643,14.00504 L -650,52.00504 L -654,91.00504 L -655,130.00504 L -653,167.00504 L -649,202.00504 L -642,237.00504 L -633,270.00504 L -627,286.00504 L -622,300.00504 L -610,326.00504 L -596,349.00504 L -580,369.00504 L -561,388.00504 L -539,405.00504 L -515,421.00504 L -488,435.00504 L -460,447.00504 L -430,456.00504 L -399,463.00504 L -382,465.00504 L -365,468.00504 L -346,469.00504 L -326,471.00504 L -304,473.00504 L -281,474.00504 L -256,476.00504 L -231,477.00504 L -205,478.00504 L -179,478.00504 L -154,477.00504 L -130,474.00504 L -107,470.00504 L -84,465.00504 L -39,452.00504 L 4,436.00504 L 44,417.00504 L 63,406.00504 L 82,394.00504 L 118,368.00504 L 135,354.00504 L 151,339.00504 L 166,324.00504 L 179,309.00504 L 191,293.00504 L 202,277.00504 L 212,259.00504 L 221,242.00504 L 228,224.00504 L 234,206.00504 L 239,190.00504 L 242,174.00504 L 243,159.00504 L 243,144.00504 L 241,130.00504 L 237,115.00504 L 233,102.00504 L 223,78.00504 L 217,68.00504 L 203,51.00504 L 196,44.00504 L 188,38.00504 L 170,28.00504 L 160,26.00504 L 149,24.00504 L 138,24.00504 L 128,26.00504 L 119,29.00504 L 103,39.00504 L 97,45.00504 L 92,52.00504 L 88,59.00504 L 85,67.00504 L 83,76.00504 L 83,96.00504 L 87,118.00504 L 92,138.00504 L 96,148.00504 L 100,157.00504 L 111,176.00504 L 124,193.00504 L 130,200.00504 L 137,207.00504 L 151,217.00504 L 167,225.00504 L 183,230.00504 L 199,234.00504 L 214,236.00504 L 229,237.00504 L 244,237.00504 L 260,234.00504 L 276,229.00504 L 294,222.00504 L 311,214.00504 L 328,203.00504 L 345,190.00504 L 362,175.00504 L 378,159.00504 L 385,150.00504 L 391,141.00504 L 401,121.00504 L 408,99.00504 L 413,76.00504 L 415,52.00504 L 414,28.00504 L 409,4.0050398 L 402,-20.99496 L 392,-44.99496 L 379,-68.99496 L 364,-92.99496 L 345,-115.99496 L 323,-137.99496 L 311,-148.99496 L 298,-158.99496 L 269,-179.99496 L 238,-198.99496 L 221,-206.99496 L 205,-213.99496 L 170,-224.99496 L 132,-232.99496 L 94,-237.99496 L 56,-239.99496 L 19,-238.99496 L -19,-234.99496 L -56,-227.99496 L -94,-218.99496 L -134,-206.99496 L -175,-191.99496 L -196,-183.99496 L -234,-165.99496 L -251,-155.99496 L -282,-134.99496 L -310,-111.99496 L -334,-86.99496 L -345,-73.99496 L -355,-60.99496 L -364,-46.99496 L -372,-30.99496 L -380,-13.99496 L -387,3.0050398 L -393,21.00504 L -397,39.00504 L -401,56.00504 L -403,72.00504 L -405,101.00504 L -403,127.00504 L -399,151.00504 L -392,173.00504 L -387,183.00504 L -381,194.00504 L -374,204.00504 L -366,213.00504 L -358,221.00504 L -349,229.00504 L -340,235.00504 L -332,240.00504 L -324,244.00504 L -314,247.00504 L -293,252.00504 L -271,255.00504 L -248,254.00504 L -225,250.00504 L -202,244.00504 L -179,234.00504 L -157,222.00504"
         id="path17" />
      <path
         style="fill:#bc1e47;fill-rule:nonzero;stroke:none;stroke-linecap:round;stroke-linejoin:round"
         d="M -89,118.00504 L -53,89.00504 L -47,136.00504 L -48,138.00504 L -50,139.00504 L -52,138.00504 L -53,136.00504 L -58,95.00504 L -53,97.00504 L -85,123.00504 L -87,124.00504 L -90,123.00504 L -90,120.00504 L -89,118.00504 z M -64,109.00504 L -58,94.00504 L -52,96.00504 L -58,111.00504 L -64,109.00504 z "
         id="path19" />
      <path
         style="fill:#bc1e47;fill-rule:nonzero;stroke:none;stroke-linecap:round;stroke-linejoin:round"
         d="M -280,-255.99496 L -321,-277.99496 L -280,-300.99496 L -278,-301.99496 L -276,-299.99496 L -276,-297.99496 L -277,-295.99496 L -313,-275.99496 L -313,-280.99496 L -277,-260.99496 L -275,-259.99496 L -276,-256.99496 L -277,-255.99496 L -280,-255.99496 z M -299,-274.99496 L -315,-274.99496 L -315,-280.99496 L -299,-280.99496 L -299,-274.99496 z "
         id="path21" />
      <path
         style="fill:#bc1e47;fill-rule:nonzero;stroke:none;stroke-linecap:round;stroke-linejoin:round"
         d="M -447,429.00504 L -412,460.00504 L -456,473.00504 L -458,473.00504 L -460,472.00504 L -460,469.00504 L -458,468.00504 L -419,456.00504 L -420,461.00504 L -451,434.00504 L -452,432.00504 L -451,430.00504 L -449,428.00504 L -447,429.00504 z M -433,452.00504 L -417,455.00504 L -418,461.00504 L -434,458.00504 L -433,452.00504 z "
         sodipodi:nodetypes="ccccccccccccccccccc"
         id="path23" />
      <path
         style="fill:#bc1e47;fill-rule:nonzero;stroke:none;stroke-linecap:round;stroke-linejoin:round"
         d="M 221,133.00504 L 227,87.00504 L 263,116.00504 L 264,118.00504 L 263,120.00504 L 261,121.00504 L 259,121.00504 L 227,95.00504 L 232,93.00504 L 227,133.00504 L 225,135.00504 L 223,136.00504 L 221,135.00504 L 221,133.00504 z M 232,108.00504 L 226,93.00504 L 232,91.00504 L 238,106.00504 L 232,108.00504 z "
         id="path25" />
      <path
         style="fill:#bc1e47;fill-rule:nonzero;stroke:none;stroke-linecap:round;stroke-linejoin:round"
         d="M 118,146.00504 L 122,192.00504 L 80,171.00504 L 79,169.00504 L 79,167.00504 L 81,166.00504 L 83,166.00504 L 120,184.00504 L 116,187.00504 L 112,146.00504 L 113,144.00504 L 115,143.00504 L 117,144.00504 L 118,146.00504 z M 112,172.00504 L 121,185.00504 L 116,189.00504 L 107,175.00504 L 112,172.00504 z "
         sodipodi:nodetypes="ccccccccccccccccccc"
         id="path27" />
      <path
         style="fill:#bc1e47;fill-rule:nonzero;stroke:none;stroke-linecap:round;stroke-linejoin:round"
         d="M 251,-165.99496 L 226,-204.99496 L 273,-205.99496 L 275,-204.99496 L 276,-202.99496 L 275,-200.99496 L 273,-199.99496 L 232,-198.99496 L 234,-203.99496 L 256,-168.99496 L 257,-166.99496 L 256,-164.99496 L 253,-163.99496 L 251,-165.99496 z M 244,-191.99496 L 230,-198.99496 L 233,-204.99496 L 247,-196.99496 L 244,-191.99496 z "
         id="path29" />
      <path
         style="fill:#bc1e47;fill-rule:nonzero;stroke:none;stroke-linecap:round;stroke-linejoin:round"
         d="M -352,-24.99496 L -387,5.0050398 L -395,-40.99496 L -394,-42.99496 L -393,-43.99496 L -390,-42.99496 L -389,-41.99496 L -382,-0.99496024 L -387,-2.9949602 L -356,-29.99496 L -354,-30.99496 L -352,-29.99496 L -351,-26.99496 L -352,-24.99496 z M -377,-14.99496 L -383,1.0050398 L -388,-0.99496024 L -383,-16.99496 L -377,-14.99496 z "
         id="path31" />
    </g>
    <g
       id="g2319"
       transform="matrix(1.25,0,0,1.25,-314.14537,-44.059162)">
      <g
         style="font-style:normal;font-variant:normal;font-weight:normal;font-stretch:normal;letter-spacing:normal;word-spacing:normal;text-anchor:start;fill:none;fill-opacity:1;fill-rule:evenodd;stroke:#000000;stroke-linecap:butt;stroke-linejoin:miter;stroke-miterlimit:10.43299961;stroke-dasharray:none;stroke-dashoffset:0;stroke-opacity:1"
         id="g2321"
         xml:space="preserve"
         transform="matrix(0.3715403,0,0,-0.3715403,-65.019555,268.04997)"><path
           style="fill:#000000;stroke-width:0"
           id="path2323"
           d="M 458.24,399.92 L 458.21,399.77 L 458.17,399.62 L 458.14,399.48 L 458.1,399.35 L 458.07,399.22 L 458.03,399.11 L 458,398.99 L 457.96,398.89 L 457.92,398.79 L 457.88,398.7 L 457.84,398.61 L 457.79,398.53 L 457.74,398.46 L 457.69,398.39 L 457.63,398.32 L 457.57,398.27 L 457.5,398.21 L 457.43,398.16 L 457.35,398.12 L 457.26,398.08 L 457.17,398.04 L 457.07,398.01 L 456.96,397.98 L 456.84,397.96 L 456.71,397.94 L 456.58,397.92 L 456.51,397.92 L 456.43,397.91 L 456.36,397.9 L 456.28,397.9 L 456.2,397.89 L 456.11,397.89 L 456.03,397.89 L 455.94,397.88 L 455.85,397.88 L 455.75,397.88 L 455.65,397.88 L 455.55,397.88 C 454.95,397.88 454.41,397.88 454.41,396.93 C 454.41,396.54 454.66,396.34 455.05,396.34 C 456.4,396.34 457.84,396.48 459.24,396.48 C 460.88,396.48 462.57,396.34 464.17,396.34 C 464.42,396.34 465.07,396.34 465.07,397.33 C 465.07,397.88 464.57,397.88 463.87,397.88 C 461.38,397.88 461.38,398.23 461.38,398.68 C 461.38,399.27 463.47,407.39 463.82,408.64 C 464.47,407.2 465.86,405.45 468.4,405.45 L 468.36,406.55 C 465.07,406.55 464.42,410.68 464.42,410.98 C 464.42,411.08 464.42,411.18 464.57,411.78 L 467.01,421.54 C 467.36,422.89 468.7,424.28 469.6,425.03 C 471.34,426.57 472.79,426.92 473.63,426.92 C 475.63,426.92 476.82,425.18 476.82,422.24 C 476.82,419.3 475.18,413.57 474.28,411.68 C 472.59,408.19 470.2,406.55 468.36,406.55 L 468.4,405.45 C 474.18,405.45 480.41,412.73 480.41,420.05 C 480.41,424.73 477.57,428.02 473.79,428.02 C 471.29,428.02 468.9,426.22 467.26,424.28 C 466.76,426.97 464.62,428.02 462.77,428.02 C 460.48,428.02 459.54,426.07 459.09,425.18 C 458.19,423.48 457.54,420.5 457.54,420.35 C 457.54,419.85 458.04,419.85 458.14,419.85 C 458.64,419.85 458.69,419.9 458.99,420.99 C 459.84,424.53 460.83,426.92 462.63,426.92 C 463.47,426.92 464.17,426.52 464.17,424.63 C 464.17,423.48 464.02,422.94 463.82,422.09 L 458.24,399.92 z " /></g>    </g>
    <g
       id="g2359"
       transform="matrix(1.25,0,0,1.25,-136.7686,-135.88624)">
      <g
         id="g2361"
         transform="matrix(0.3715403,0,0,-0.3715403,-65.019555,268.04997)"
         style="font-style:normal;font-variant:normal;font-weight:normal;font-stretch:normal;letter-spacing:normal;word-spacing:normal;text-anchor:start;fill:none;fill-opacity:1;fill-rule:evenodd;stroke:#000000;stroke-linecap:butt;stroke-linejoin:miter;stroke-miterlimit:10.43299961;stroke-dasharray:none;stroke-dashoffset:0;stroke-opacity:1"
         xml:space="preserve"><path
           id="path2363"
           d="M 493.86,440.62 L 493.86,440.64 L 493.86,440.65 L 493.86,440.67 L 493.85,440.69 L 493.85,440.7 L 493.85,440.72 L 493.84,440.74 L 493.84,440.76 L 493.83,440.78 L 493.82,440.8 L 493.81,440.82 L 493.8,440.84 L 493.79,440.86 L 493.78,440.88 L 493.77,440.9 L 493.75,440.92 L 493.74,440.94 L 493.72,440.96 L 493.7,440.98 L 493.68,441 L 493.66,441.02 L 493.64,441.03 L 493.61,441.05 L 493.58,441.06 L 493.56,441.07 L 493.54,441.08 L 493.53,441.08 L 493.51,441.09 L 493.49,441.09 L 493.48,441.1 L 493.46,441.1 L 493.44,441.11 L 493.43,441.11 L 493.41,441.11 L 493.39,441.11 L 493.37,441.11 L 493.35,441.12 L 493.33,441.12 L 493.31,441.12 C 493.16,441.12 493.11,441.07 492.56,440.52 L 489.07,436.68 C 488.63,437.38 486.34,441.12 480.81,441.12 C 469.7,441.12 458.49,430.11 458.49,418.55 C 458.49,410.33 464.37,404.9 471.99,404.9 C 476.32,404.9 480.11,406.9 482.75,409.19 C 487.38,413.27 488.23,417.8 488.23,417.96 C 488.23,418.45 487.73,418.45 487.63,418.45 C 487.33,418.45 487.08,418.36 486.98,417.96 C 486.54,416.51 485.39,412.97 481.95,410.09 C 478.52,407.3 475.38,406.45 472.79,406.45 C 468.3,406.45 463.02,409.04 463.02,416.81 C 463.02,419.65 464.07,427.72 469.05,433.55 C 472.09,437.08 476.77,439.57 481.21,439.57 C 486.29,439.57 489.23,435.74 489.23,429.96 C 489.23,427.97 489.07,427.92 489.07,427.42 C 489.07,426.92 489.63,426.92 489.82,426.92 C 490.47,426.92 490.47,427.02 490.72,427.92 L 493.86,440.62 z "
           style="fill:#000000;stroke-width:0" /></g>    </g>
  </g>
</svg>
